<svg xmlns="http://www.w3.org/2000/svg" viewBox="0 0 518.83 62.25"><defs><style>.e7c21efb-5792-434b-94f6-3a1962b7b8ea{fill:#fc2e5d;}.e5274927-890e-48c7-99d6-f708bc136525{fill:#460184;}.e2135550-609e-412d-8fb9-cb4b0d667db3{fill:#460084;}</style></defs><g id="ffb607de-602e-4847-b1bf-a68ac7973828" data-name="Ebene 2"><g id="befa4acc-3c1e-458f-af16-6668efd9773a" data-name="Ebene 1"><polygon class="e7c21efb-5792-434b-94f6-3a1962b7b8ea" points="15.15 47.06 0 51.59 15.15 62.25 15.15 47.06"/><polygon class="e7c21efb-5792-434b-94f6-3a1962b7b8ea" points="15.15 24.3 0 28.83 7.61 34.18 15.15 31.9 15.15 24.3"/><polygon class="e5274927-890e-48c7-99d6-f708bc136525" points="0 13.72 0 28.83 45.43 15.27 45.43 15.25 45.43 0.02 45.43 0 0 13.72"/><polygon class="e5274927-890e-48c7-99d6-f708bc136525" points="15.15 31.9 7.61 34.18 0 36.48 0 51.59 45.43 38.02 45.43 38.01 45.43 22.78 45.43 22.76 15.15 31.9"/><polygon class="e2135550-609e-412d-8fb9-cb4b0d667db3" points="67.29 61.25 74.72 61.25 74.72 42.73 90.34 42.73 90.34 35.33 74.72 35.33 74.72 24.25 94.04 24.25 94.04 16.81 67.29 16.81 67.29 61.25"/><path class="e2135550-609e-412d-8fb9-cb4b0d667db3" d="M109.91,16.81l-14,44.44h7.65l3-9.63h17.51l3.07,9.63h7.65l-14-44.44Zm-1.14,27.87L115.28,24l6.59,20.67Z"/><rect class="e2135550-609e-412d-8fb9-cb4b0d667db3" x="140.98" y="16.81" width="7.44" height="44.44"/><path class="e2135550-609e-412d-8fb9-cb4b0d667db3" d="M188.17,40.62a15.82,15.82,0,0,0,2.74-9.34,17.54,17.54,0,0,0-1.22-6.68,11.83,11.83,0,0,0-3.73-5,15.94,15.94,0,0,0-8.26-2.76c-.67,0-1.23-.05-1.66-.05H157.68V61.25h7.43V45.73h10.57l7.52,15.52h8.42L183.41,44.4A11,11,0,0,0,188.17,40.62ZM165.11,23.78h10.62c.41,0,.87,0,1.39,0a6.8,6.8,0,0,1,1.42.23,5.71,5.71,0,0,1,2.91,1.64A6.85,6.85,0,0,1,183,28.37a10,10,0,0,1,.44,2.91,9.87,9.87,0,0,1-.44,2.9,6.89,6.89,0,0,1-1.52,2.66,5.69,5.69,0,0,1-2.91,1.63,6.77,6.77,0,0,1-1.42.25c-.52,0-1,.06-1.39.06H165.11Z"/><polygon class="e2135550-609e-412d-8fb9-cb4b0d667db3" points="206.47 16.81 199.03 16.81 199.03 61.25 226.09 61.25 226.09 54.27 206.47 54.27 206.47 16.81"/><path class="e2135550-609e-412d-8fb9-cb4b0d667db3" d="M242.26,16.81l-14,44.44h7.66l3-9.63h17.5l3.08,9.63h7.65l-14-44.44Zm-1.13,27.87L247.64,24l6.59,20.67Z"/><polygon class="e2135550-609e-412d-8fb9-cb4b0d667db3" points="300.87 48.13 280.25 16.81 272.72 16.81 272.72 61.25 280.25 61.25 280.25 29.93 300.87 61.25 308.4 61.25 308.4 16.81 300.87 16.81 300.87 48.13"/><path class="e2135550-609e-412d-8fb9-cb4b0d667db3" d="M355.92,38H340.18v5.83H348a16.17,16.17,0,0,1-2.16,6.37,10.16,10.16,0,0,1-4.13,3.8,13,13,0,0,1-5.9,1.22,13.35,13.35,0,0,1-7.45-2.07,12.11,12.11,0,0,1-4.46-5.6A22.11,22.11,0,0,1,322.44,39a22.28,22.28,0,0,1,1.5-8.52,12.2,12.2,0,0,1,4.45-5.65,12.74,12.74,0,0,1,7.44-1.94,11.19,11.19,0,0,1,7.32,2.36,13.11,13.11,0,0,1,4.13,6.31l7.59-1.2a19,19,0,0,0-6.49-10.7q-4.8-3.81-13-3.81a20.63,20.63,0,0,0-10.65,2.77,19.41,19.41,0,0,0-7.44,7.93A26.44,26.44,0,0,0,314.57,39a28.13,28.13,0,0,0,1.6,9.86,20.88,20.88,0,0,0,4.46,7.27,19.19,19.19,0,0,0,6.64,4.49,23,23,0,0,0,19.18-1.25,18.61,18.61,0,0,0,7.11-7.67,24.32,24.32,0,0,0,2.49-11.19c0-.12,0-.5,0-1.14S356,38.28,355.92,38Z"/><path class="e2135550-609e-412d-8fb9-cb4b0d667db3" d="M390.49,44.55a11.28,11.28,0,0,1-.84,4.45,9.76,9.76,0,0,1-2.28,3.35,10.1,10.1,0,0,1-3.32,2.09,10.63,10.63,0,0,1-3.93.73,11,11,0,0,1-3.89-.71,9.76,9.76,0,0,1-3.33-2.08A9.85,9.85,0,0,1,370.6,49a11.19,11.19,0,0,1-.85-4.48V16.81l-7.53.06V44.74a17.92,17.92,0,0,0,2.27,9.19A15.66,15.66,0,0,0,370.78,60a21.25,21.25,0,0,0,18.67,0,15.63,15.63,0,0,0,6.3-6.08A18,18,0,0,0,398,44.74V16.81h-7.53Z"/><path class="e2135550-609e-412d-8fb9-cb4b0d667db3" d="M415.73,16.81l-14,44.44h7.65l3-9.63h17.51L433,61.25h7.65l-14-44.44Zm-1.14,27.87L421.1,24l6.6,20.67Z"/><path class="e2135550-609e-412d-8fb9-cb4b0d667db3" d="M483.84,38H468.1v5.83h7.84a16.17,16.17,0,0,1-2.16,6.37,10.12,10.12,0,0,1-4.14,3.8,12.9,12.9,0,0,1-5.89,1.22,13.33,13.33,0,0,1-7.45-2.07,12,12,0,0,1-4.46-5.6A22.11,22.11,0,0,1,450.35,39a22.28,22.28,0,0,1,1.5-8.52,12.28,12.28,0,0,1,4.46-5.65,12.72,12.72,0,0,1,7.44-1.94,11.14,11.14,0,0,1,7.31,2.36,13.13,13.13,0,0,1,4.14,6.31l7.59-1.2a19,19,0,0,0-6.5-10.7q-4.8-3.81-13-3.81a20.59,20.59,0,0,0-10.64,2.77,19.34,19.34,0,0,0-7.44,7.93A26.43,26.43,0,0,0,442.48,39a28.12,28.12,0,0,0,1.61,9.86,20.88,20.88,0,0,0,4.46,7.27,19.06,19.06,0,0,0,6.63,4.49,21.38,21.38,0,0,0,8.1,1.52,21.14,21.14,0,0,0,11.08-2.77,18.56,18.56,0,0,0,7.12-7.67A24.44,24.44,0,0,0,484,40.54q0-.18,0-1.14C483.91,38.76,483.88,38.28,483.84,38Z"/><polygon class="e2135550-609e-412d-8fb9-cb4b0d667db3" points="518.83 23.78 518.83 16.81 490.13 16.81 490.13 61.25 518.83 61.25 518.83 54.27 497.57 54.27 497.57 41.71 515.13 41.71 515.13 34.74 497.57 34.74 497.57 23.78 518.83 23.78"/></g></g></svg>